<svg id="Layer_1" data-name="Layer 1" xmlns="http://www.w3.org/2000/svg" xmlns:xlink="http://www.w3.org/1999/xlink" viewBox="0 0 178.24 57"><defs><style>.cls-1{fill:#27d;}.cls-2{fill:#4d96ff;}.cls-3{fill:#050600;}.cls-4{fill:#fff;}.cls-5{fill:#ffdeab;}.cls-6{opacity:0.27;}.cls-7{fill:#dea95b;}.cls-8{opacity:0.4;}.cls-9{fill:#ee4035;}.cls-10{fill:url(#linear-gradient);}</style><linearGradient id="linear-gradient" x1="629.11" y1="170.94" x2="756.9" y2="170.94" gradientUnits="userSpaceOnUse"><stop offset="0" stop-color="#4d96ff"/><stop offset="1" stop-color="#9570ee"/></linearGradient></defs><title>Logo ngang</title><path class="cls-1" d="M602.3,187.63a.41.41,0,0,1-.19,0l-.66-.33a41.69,41.69,0,0,1-14.66-11.82,37.1,37.1,0,0,1-6.35-13,37.93,37.93,0,0,1-1-14.88l.16-.9a.45.45,0,0,1,.31-.35l5.51-1.56a22.53,22.53,0,0,1,1.71-1.56l-1.88-.29a.44.44,0,0,1-.14-.82l1.82-.94-.68-.21a.43.43,0,0,1-.06-.81l3.94-1.89L586.24,136a.44.44,0,0,1,.19-.82l5.08-.28,2.37-.06H595l-3.27-3.46a.44.44,0,0,1,.32-.74l4.86.09a17.45,17.45,0,0,1,8.47,2.69,2.49,2.49,0,0,1,3.15.53c1.05,1,4.32,4.55,4.5,9l11.66,3.31a.45.45,0,0,1,.31.35l.16.9a37.7,37.7,0,0,1-1,14.88,36.93,36.93,0,0,1-6.35,13,41.74,41.74,0,0,1-14.65,11.82l-.66.33A.46.46,0,0,1,602.3,187.63Z" transform="translate(-579.12 -130.63)"/><path class="cls-2" d="M623.28,147.85l-21-6-21,6s-4.42,24.92,21,37.7C627.7,172.77,623.28,147.85,623.28,147.85Z" transform="translate(-579.12 -130.63)"/><path class="cls-3" d="M612.3,154a34,34,0,0,0-2.49-3.28c-1.76-2-3.29-3.13-4.32-3.13a1.11,1.11,0,0,0-.58.15,2.38,2.38,0,0,1-1.14.36h0a1.21,1.21,0,0,1-1.2-1.36c0-1.58,1.68-4.54,4.55-4.63h.11c2.13,0,4,1.84,5.22,3.38.9,1.15,2.49,3.69,2.31,4.4-.12.48-1.31,3.64-1.44,4l-.4,1.06Z" transform="translate(-579.12 -130.63)"/><path class="cls-3" d="M612.78,153.68s1.32-3.48,1.43-3.93-3.31-7.19-7.08-7.08-5.42,6.22-2.51,4.57S612.78,153.68,612.78,153.68Z" transform="translate(-579.12 -130.63)"/><path class="cls-3" d="M617.47,178.8l-.27-.12a4.15,4.15,0,0,0-2-.42h-.89a7,7,0,0,0-2.46.71l-.16,0H611a.54.54,0,0,0-.22,0l-.12,0-1.56-.31-.8-.7a.59.59,0,0,0-.38-.14c-.12,0,0-.55.14-.71a.56.56,0,0,0-.08-.72,3.44,3.44,0,0,0-2-.88.8.8,0,0,0-.39.09.58.58,0,0,0-.28.32,3.36,3.36,0,0,0-2.19-.69,7.45,7.45,0,0,0-1,.08.58.58,0,0,0-.47.44.53.53,0,0,0,0,.28,19.72,19.72,0,0,0-2.33,1.66l-.92-.58a.59.59,0,0,0-.31-.09l-.14,0a7,7,0,0,0-.34-1.56c1.67-1.52,2-2.31,2.05-2.53a2.88,2.88,0,0,0-.22-2.26,1,1,0,0,0-.84-.43,1.26,1.26,0,0,0-.33.05.56.56,0,0,0-.31.23l-.08.12a5.4,5.4,0,0,1-2.81,2.42l-1.36-1.36c-.42-.49-1.82-2-2.91-2a1.11,1.11,0,0,0-.73.26,2.72,2.72,0,0,0-1,1.87,1.13,1.13,0,0,0,.32.9c.29.3,1.78,1.63,2.27,2.06a1.86,1.86,0,0,0-.7.78,8.75,8.75,0,0,0-.22.91,2,2,0,0,0,0,.9,4,4,0,0,1-.19.55.14.14,0,0,0,0,.06,3.25,3.25,0,0,0,1.46,3.44,3.61,3.61,0,0,0,.92.5,5.92,5.92,0,0,0,1.16.14h0a2.77,2.77,0,0,0,1.55-.41l.07.09a1,1,0,0,0,.7.27h0a1.7,1.7,0,0,0,1.19-.57l0,0a.45.45,0,0,0,.2,0,6.18,6.18,0,0,0,1.39-.25,6.8,6.8,0,0,0,2.21-1.46c-.2,1.57,6.21,2.91,7.77,1.45l.84.41c0,.69,1.13.88,1.71.88a.58.58,0,0,0,.44-.21l1,.46a2.82,2.82,0,0,0,1.8.51,6.43,6.43,0,0,0,.79,0,2.73,2.73,0,0,0,0,.91.84.84,0,0,0,.83.69.94.94,0,0,0,.48-.13,1.18,1.18,0,0,0,.48.1,1.21,1.21,0,0,0,1.08-.8,1.09,1.09,0,0,0,.8-.7,3.58,3.58,0,0,0,.19-1.35A3.05,3.05,0,0,0,617.47,178.8Z" transform="translate(-579.12 -130.63)"/><path class="cls-3" d="M611.86,179l-.16,0H611a.54.54,0,0,0-.22,0l-.12,0-1.56-.31-.8-.7a.59.59,0,0,0-.38-.14c-.12,0,0-.55.14-.71a.56.56,0,0,0-.08-.72,3.44,3.44,0,0,0-2-.88.8.8,0,0,0-.39.09.58.58,0,0,0-.28.32,3.36,3.36,0,0,0-2.19-.69,7.45,7.45,0,0,0-1,.08.58.58,0,0,0-.47.44.53.53,0,0,0,0,.28,19.72,19.72,0,0,0-2.33,1.66l-.92-.58a.59.59,0,0,0-.31-.09l-.14,0a7,7,0,0,0-.34-1.56c1.67-1.52,2-2.31,2.05-2.53a2.88,2.88,0,0,0-.22-2.26,1,1,0,0,0-.84-.43,1.26,1.26,0,0,0-.33.05.56.56,0,0,0-.31.23l-.08.12a5.4,5.4,0,0,1-2.81,2.42l-1.36-1.36c-.42-.49-1.82-2-2.91-2a1.11,1.11,0,0,0-.73.26,2.72,2.72,0,0,0-1,1.87,1.13,1.13,0,0,0,.32.9c.29.3,1.78,1.63,2.27,2.06a1.86,1.86,0,0,0-.7.78,8.75,8.75,0,0,0-.22.91,4.73,4.73,0,0,0-.07.56,38.44,38.44,0,0,0,5.74,5,1.7,1.7,0,0,0,1.14-.56l0,0a.45.45,0,0,0,.2,0,6.18,6.18,0,0,0,1.39-.25,6.8,6.8,0,0,0,2.21-1.46,44.06,44.06,0,0,1-1,4.75c.63.35,1.28.7,1.95,1a42.71,42.71,0,0,0,9.78-6.67Z" transform="translate(-579.12 -130.63)"/><polygon class="cls-4" points="28.82 47.76 29.73 48.56 31.44 48.9 31.21 50.5 29.84 50.04 28.82 47.76"/><path class="cls-4" d="M611,179.53h.69a15.52,15.52,0,0,0,0,2.4c-.69,0-1.14-.23-1.14-.35C610.67,181.13,611,179.53,611,179.53Z" transform="translate(-579.12 -130.63)"/><path class="cls-4" d="M603.82,177.82s.23-.91,1.83-.8c-.57-.57-1.14-1.48-3.42-1.14A3.29,3.29,0,0,1,603.82,177.82Z" transform="translate(-579.12 -130.63)"/><path class="cls-3" d="M603.31,176.32a17.14,17.14,0,0,1-9.7-3.22c-2.22-1.55-3.88-3.42-4-4.19s-2.45-5.88-4-9.11a.47.47,0,0,1,0-.26l.34-9.93a.58.58,0,0,1,.35-.51l7.19-3a.47.47,0,0,1,.17,0l5-.46h.17l9.47,2,.1,0c.23.09,5.47,2.4,6.17,11.2s-1.77,14.83-6.5,16.63A13.29,13.29,0,0,1,603.31,176.32Z" transform="translate(-579.12 -130.63)"/><path class="cls-5" d="M608.16,148.26S613.3,150.43,614,159s-1.68,14.37-6.1,16c-10,3.77-17.52-5.08-17.75-6.22s-4-9.24-4-9.24l.34-9.93,7.19-3,5-.45Z" transform="translate(-579.12 -130.63)"/><path class="cls-3" d="M601.09,154.65s-3.2-2.74-5-1.25a5.27,5.27,0,0,0-.68,3.08S596.75,152.94,601.09,154.65Z" transform="translate(-579.12 -130.63)"/><g class="cls-6"><path class="cls-7" d="M593.67,146.66l-7.19,3-.34,9.93s3.76,8.1,4,9.24a10.08,10.08,0,0,0,3.1,3.31c.42.12.82.22,1.21.31a6.12,6.12,0,0,1,0-7.21c-2-4.11-1.6-10.73.91-13.58,2.51,3,12.33.34,12.33.34l-2.23-4.3-6.73-1.46Z" transform="translate(-579.12 -130.63)"/></g><g class="cls-8"><path class="cls-4" d="M611.87,171.73c1.78-2.87,2.55-7.29,2.11-12.74-.38-4.76-2.14-7.55-3.62-9.08,3,5.37,3.73,12.92,1.51,21.82Z" transform="translate(-579.12 -130.63)"/></g><path class="cls-3" d="M607.25,158.87s1.71,4.57,3,5.71c-.12,1.26-2.29,2.63-5.6.8,0,0,3.77.8,4.57-.69C608.85,164.12,607.25,160.24,607.25,158.87Z" transform="translate(-579.12 -130.63)"/><path class="cls-3" d="M592.56,165.88c-1.85-.47-6.73-2.57-6.93-2.66l-.22-.09-.09-.21s-.9-2.18-1.72-4.5c-1.52-4.28-1.53-5.42-1.37-5.93.46-1.52,4.24-7.81,10.13-10.38a4,4,0,0,0-.66-.19l-1.73-.26,1.55-.81.42-.21-1.54-.48,1.31-.63a17.3,17.3,0,0,1,3.21-1.12c-.74-.32-1.24-.57-1.28-.59l-2.08-1,2.34,0h5.52l-3.9-4.14,1.35,0a15.27,15.27,0,0,1,9.14,3.65c0-.88.07-1,.19-1.11a.6.6,0,0,1,.44-.19.61.61,0,0,1,.49.25c.55.53,4.22,4.19,4,8.5a14.75,14.75,0,0,1-1.08,5.86c-1,1.88-2.83,2.8-5.62,2.8l-.75,0c-5.13-.28-7.88-1.74-8.87-2.39-1.93,1.92-4.56,5.17-4.29,6.68l.18,1a18.06,18.06,0,0,0,2.48,7.33l.75,1.2Z" transform="translate(-579.12 -130.63)"/><path class="cls-3" d="M594.75,149.23s-5.25,5-4.79,7.53.68,5.25,2.74,8.56c-1.83-.45-6.85-2.62-6.85-2.62s-3.54-8.56-3.08-10,4.68-8.45,11.07-10.5a6.73,6.73,0,0,0-2.05-.8l1.65-.86-1.48-.45a14.66,14.66,0,0,1,5.25-1.37,28,28,0,0,1-3.31-1.37h6.84l-3.88-4.11a14.59,14.59,0,0,1,9.82,4.56c-.23-2.74,0-2.16,0-2.16s4.11,3.76,3.88,8.1-.46,8.44-6.85,8.1S594.75,149.23,594.75,149.23Z" transform="translate(-579.12 -130.63)"/><path class="cls-3" d="M592.58,159.16a30.82,30.82,0,0,1,7.25-2c3.36-.3,4,.46,4.57.69a3.77,3.77,0,0,0,2.51-.12c.68-.34-.23-1.25,3.42-1.82s5-1,5.82.57,1.25,5.25-.34,6.05-4.34,1.59-5.48.91a7,7,0,0,1-2.85-3.88c-.69-.34-2.4-.69-2.63.23s0,3-1.37,3.88-6.54,2.19-7.76,1.14a4.83,4.83,0,0,1-1.88-4.28,7.86,7.86,0,0,0-1.26-.11l-5.08,2.11-1.69-1.16,6.66-1.64Z" transform="translate(-579.12 -130.63)"/><path class="cls-4" d="M595.78,159.05a14.59,14.59,0,0,1,3.42-.92c2.17-.34,4.45-.68,4.62,1.54s-.45,3.43-1.14,3.66-5,1.49-6,1a4,4,0,0,1-2-3.21A1.79,1.79,0,0,1,595.78,159.05Z" transform="translate(-579.12 -130.63)"/><path class="cls-4" d="M610.57,156.88a22.61,22.61,0,0,1,3.24-.34c1.94,0,2.17,1,2.34,2.56s.28,2.57-1.66,3.26-3.12.67-3.88.34-2.45-1.3-2.26-4.24C608.45,157.11,610.07,157,610.57,156.88Z" transform="translate(-579.12 -130.63)"/><path class="cls-5" d="M590.7,163.67c-.44-.38-3.94-4.51-7.87-1.49-.8.8-1.71,2.17,1.48,4.57s4.17,3,5.76,2S594.24,166.63,590.7,163.67Z" transform="translate(-579.12 -130.63)"/><path class="cls-3" d="M588.7,169.51c-1.11,0-2.33-.86-4.56-2.53-1.52-1.14-2.29-2.17-2.36-3.14a2.42,2.42,0,0,1,.85-1.86l0,0a4.9,4.9,0,0,1,5.14-.75,9.45,9.45,0,0,1,2.92,2.07l.17.17h0c1.33,1.11,1.94,2.08,1.88,3-.08,1.08-1.15,1.74-2.1,2.32l-.43.27A2.86,2.86,0,0,1,588.7,169.51ZM583,162.4a1.82,1.82,0,0,0-.67,1.4c.06.79.77,1.7,2.13,2.72,3.29,2.47,4.06,2.87,5.44,2l.44-.28c.83-.51,1.77-1.09,1.83-1.88s-.51-1.49-1.67-2.46l-.21-.2C587.71,161.12,585.26,160.69,583,162.4Z" transform="translate(-579.12 -130.63)"/><path class="cls-3" d="M584.2,164.12a2.64,2.64,0,0,1,1.82-.57,4.48,4.48,0,0,1,3.77,1.83c-.8-.46-2.4-1.26-2.4-1.26s-.91,1.72.34,1.94a4.92,4.92,0,0,0,2.06,0s-1.14,1-1.71.8-1.71-.57-1.71-2.74A7.07,7.07,0,0,0,584.2,164.12Z" transform="translate(-579.12 -130.63)"/><path class="cls-3" d="M606,172.37a4.88,4.88,0,0,1-3.84-1.46,2.39,2.39,0,0,0-.4.67.12.12,0,0,1-.11.09h0a.11.11,0,0,1-.11-.08,1.19,1.19,0,0,1,.12-1.14,2.29,2.29,0,0,1,1.73-.7h.06a.12.12,0,0,1,.11.1.11.11,0,0,1-.07.12,3.73,3.73,0,0,0-.79.43,4.22,4.22,0,0,0,2.56,1.2,4.65,4.65,0,0,0,.57.05,12,12,0,0,0,4.27-1.26h0a.11.11,0,0,1,.1.06.11.11,0,0,1,0,.15,10,10,0,0,1-2.9,1.59A4.66,4.66,0,0,1,606,172.37Z" transform="translate(-579.12 -130.63)"/><path class="cls-3" d="M597.27,161.46c.28-.05.29-.21.27-.35s-.06-.21-.09-.32a2,2,0,0,1-.1-.32.5.5,0,0,1,.48-.62l.08,0,0,.22h-.07c-.23,0-.29.18-.25.4a2.76,2.76,0,0,0,.08.27,1,1,0,0,1,.08.3.36.36,0,0,1-.2.47h0c.19,0,.32.13.36.38a1.69,1.69,0,0,1,0,.3,2.58,2.58,0,0,0,0,.29c0,.22.15.33.37.29l.07,0,0,.22-.08,0a.5.5,0,0,1-.67-.44c0-.1,0-.22,0-.33a1.66,1.66,0,0,0,0-.32c0-.12-.09-.29-.37-.23Z" transform="translate(-579.12 -130.63)"/><path class="cls-3" d="M598.68,162.27a.23.23,0,0,1,.19-.29.23.23,0,0,1,.28.2.24.24,0,0,1-.19.29A.23.23,0,0,1,598.68,162.27Z" transform="translate(-579.12 -130.63)"/><path class="cls-3" d="M599.49,162.12a.24.24,0,0,1,.19-.29.22.22,0,0,1,.28.2.23.23,0,0,1-.19.29A.23.23,0,0,1,599.49,162.12Z" transform="translate(-579.12 -130.63)"/><path class="cls-3" d="M600.31,162a.24.24,0,1,1,.28.2A.23.23,0,0,1,600.31,162Z" transform="translate(-579.12 -130.63)"/><path class="cls-3" d="M601.78,160.84c-.28,0-.29.23-.27.35a2.8,2.8,0,0,0,.09.31,1.92,1.92,0,0,1,.09.32.51.51,0,0,1-.47.65h-.08l0-.22h.07c.22,0,.29-.18.25-.4s0-.18-.08-.28a1.4,1.4,0,0,1-.09-.29.39.39,0,0,1,.2-.48h0a.39.39,0,0,1-.36-.37,1.67,1.67,0,0,1,0-.31,2.85,2.85,0,0,0,0-.29c0-.21-.14-.31-.37-.28l-.07,0,0-.22h.08a.5.5,0,0,1,.67.4c0,.12,0,.22,0,.34a1.23,1.23,0,0,0,0,.33c0,.14.09.29.37.24Z" transform="translate(-579.12 -130.63)"/><path class="cls-3" d="M610.05,159.87c.28-.05.29-.22.27-.35s-.06-.22-.09-.33a2,2,0,0,1-.1-.32.5.5,0,0,1,.48-.62l.08,0,0,.22h-.07a.3.3,0,0,0-.25.4,2.76,2.76,0,0,0,.08.27,1.49,1.49,0,0,1,.09.3.39.39,0,0,1-.21.48h0c.19,0,.32.13.37.38a1.67,1.67,0,0,1,0,.31,2.4,2.4,0,0,0,0,.28c0,.23.15.33.37.29h.07l0,.21-.08,0a.5.5,0,0,1-.67-.43c0-.11,0-.22,0-.33a1.84,1.84,0,0,0,0-.33c0-.12-.09-.28-.37-.23Z" transform="translate(-579.12 -130.63)"/><path class="cls-3" d="M611.46,160.67a.24.24,0,1,1,.47-.09.25.25,0,0,1-.19.3A.24.24,0,0,1,611.46,160.67Z" transform="translate(-579.12 -130.63)"/><path class="cls-3" d="M612.27,160.52a.24.24,0,0,1,.19-.29.23.23,0,0,1,.28.2.24.24,0,0,1-.19.3A.25.25,0,0,1,612.27,160.52Z" transform="translate(-579.12 -130.63)"/><path class="cls-3" d="M613.09,160.37a.23.23,0,0,1,.19-.29.25.25,0,1,1-.19.29Z" transform="translate(-579.12 -130.63)"/><path class="cls-3" d="M614.56,159.24c-.28,0-.29.23-.27.35a2.8,2.8,0,0,0,.09.31,2.23,2.23,0,0,1,.09.32.5.5,0,0,1-.47.65h-.08l0-.21.07,0c.22,0,.29-.18.25-.4s-.05-.18-.08-.28a1.23,1.23,0,0,1-.09-.29.38.38,0,0,1,.21-.48h0c-.18,0-.31-.12-.36-.37a1.67,1.67,0,0,1,0-.31,2.66,2.66,0,0,0,0-.28c0-.22-.14-.32-.37-.28h-.07l0-.22h.08c.33-.06.6,0,.67.41,0,.11,0,.22,0,.33a2,2,0,0,0,0,.34c0,.14.09.28.37.23Z" transform="translate(-579.12 -130.63)"/><path class="cls-3" d="M590.19,145.58s-4.57,4-6,7.36c-.41,1,.8,4.45.8,4.45S584.48,152.43,590.19,145.58Z" transform="translate(-579.12 -130.63)"/><path class="cls-3" d="M607.48,154.2s3.08-5.71,4.56,0C610.9,152.94,610.22,152.48,607.48,154.2Z" transform="translate(-579.12 -130.63)"/><path class="cls-4" d="M606.11,177a2.28,2.28,0,0,1,1.48-.23,2.5,2.5,0,0,0-1.71-.68A5.37,5.37,0,0,1,606.11,177Z" transform="translate(-579.12 -130.63)"/><path class="cls-3" d="M600.12,177.11l-.77.58-.92-.58a.59.59,0,0,0-.31-.09l-.14,0a7,7,0,0,0-.34-1.56c1.67-1.52,2-2.31,2.05-2.53a2.88,2.88,0,0,0-.22-2.26,1,1,0,0,0-.84-.43,1.26,1.26,0,0,0-.33.05.56.56,0,0,0-.31.23l-.08.12a5.4,5.4,0,0,1-2.81,2.42l-1.36-1.36c-.42-.49-1.82-2-2.91-2a1.11,1.11,0,0,0-.73.26,2.72,2.72,0,0,0-1,1.87,1.13,1.13,0,0,0,.32.9c.29.3,1.78,1.63,2.27,2.06a1.86,1.86,0,0,0-.7.78,8.75,8.75,0,0,0-.22.91,2,2,0,0,0,0,.9,4,4,0,0,1-.19.55.14.14,0,0,0,0,.06,3.25,3.25,0,0,0,1.46,3.44,3.61,3.61,0,0,0,.92.5,5.92,5.92,0,0,0,1.16.14h0a2.77,2.77,0,0,0,1.55-.41l.07.09a1,1,0,0,0,.7.27h0a1.7,1.7,0,0,0,1.19-.57l0,0a.45.45,0,0,0,.2,0,6.18,6.18,0,0,0,1.39-.25,3.07,3.07,0,0,0,1-.47Z" transform="translate(-579.12 -130.63)"/><path class="cls-4" d="M607.59,178.85s-2.17-.58-2.28-1.37a1.33,1.33,0,0,0-1.37.91A10.53,10.53,0,0,1,602.8,177c-.46-.69-.8-.46-.92-.46s-2.51,1.83-2.51,1.83l-1.25-.8a9.61,9.61,0,0,1-.34,3.31,6.1,6.1,0,0,0,1.25-.23c.91-.23,3-2.28,3.77-2.85a3.85,3.85,0,0,1-.8,1,29.34,29.34,0,0,1-1.14,5.94h0c.47.26.95.51,1.44.76.24-.12.48-.24.71-.37h0l.76-.4.06,0c.51-.27,1-.55,1.48-.84l0,0,.68-.41,0,0c.46-.29.92-.59,1.36-.89l.06,0c.45-.3.88-.61,1.3-.92h0A15.69,15.69,0,0,0,607.59,178.85Z" transform="translate(-579.12 -130.63)"/><path class="cls-4" d="M597.78,178.73l-.69.46s0,1.6-1,2.17C596.41,181.7,597.89,181.24,597.78,178.73Z" transform="translate(-579.12 -130.63)"/><path class="cls-4" d="M597,175.31s1.94-1.71,2.17-2.51.11-2.17-.69-1.94a6,6,0,0,1-3.54,2.85l-1.59-1.6s-2.06-2.39-2.86-1.71-1,1.6-.68,1.94,2.4,2.17,2.4,2.17l.45.34s-1,.57-1.14.91a4.12,4.12,0,0,0-.23,1.49c.12.11-.23.91-.23.91s-.57,1.94-.22,1.94a16,16,0,0,1,2,1.26,2.74,2.74,0,0,0,3.77-2.51C597,178.62,598,178.16,597,175.31Z" transform="translate(-579.12 -130.63)"/><path class="cls-3" d="M593.47,181.42h-.21a5.33,5.33,0,0,1-2.9-1.21c-.7-.7-.5-1.95.47-2.91a.58.58,0,0,1,.41-.17.55.55,0,0,1,.32.1,10.16,10.16,0,0,0,3,1.52.58.58,0,0,1,.58.58,2.77,2.77,0,0,1-.28,1.19A1.57,1.57,0,0,1,593.47,181.42Z" transform="translate(-579.12 -130.63)"/><path class="cls-4" d="M591.24,177.7s2.43,1.62,3.36,1.62c0,.47-.23,1.63-1.27,1.51a4.74,4.74,0,0,1-2.56-1C590.31,179.32,590.54,178.39,591.24,177.7Z" transform="translate(-579.12 -130.63)"/><path class="cls-3" d="M594.84,179.56h-.18a7.3,7.3,0,0,1-3.94-2.17,2,2,0,0,1,0-1.75,1.77,1.77,0,0,1,1.36-.94h.11l.14,0s.93.24,1.87.56c1.87.65,2.24,1.07,2.37,1.44a2.61,2.61,0,0,1-.36,2.15A1.63,1.63,0,0,1,594.84,179.56Z" transform="translate(-579.12 -130.63)"/><path class="cls-4" d="M592.17,175.26s3.59.93,3.83,1.63-.12,2.2-1.28,2.08a7.24,7.24,0,0,1-3.48-1.85A1.24,1.24,0,0,1,592.17,175.26Z" transform="translate(-579.12 -130.63)"/><path class="cls-4" d="M612,179.53a6.76,6.76,0,0,1,2.28-.68,5.21,5.21,0,0,1,2.63.34c.91.45,2,.78,2,2.74,0,1.14-.23,1.59-.8,1.48-.11.23-.34,1.25-1.25.57-.12.23-.57.46-.69,0a4.78,4.78,0,0,1,.12-1.48s-2.06.57-3-.23c-.91-.46-1.54-.73-1.54-.73Z" transform="translate(-579.12 -130.63)"/><path class="cls-3" d="M613.58,182.61l0,0-.1-.09a2.46,2.46,0,0,1-.85-.16,3.39,3.39,0,0,1-.85-.43.22.22,0,0,1,0-.08.16.16,0,0,1,0-.09.12.12,0,0,1,.09-.05l.07,0a3.42,3.42,0,0,0,.8.36,2.39,2.39,0,0,0,.77.13h.08a2.12,2.12,0,0,0,.81-.21,2.71,2.71,0,0,0,.7-.49.12.12,0,0,1,.08,0,.15.15,0,0,1,.09,0,.12.12,0,0,1,0,.15,2.07,2.07,0,0,1-.73.65l0,0A1.84,1.84,0,0,1,613.58,182.61Z" transform="translate(-579.12 -130.63)"/><path class="cls-3" d="M618.52,183.66a.64.64,0,0,1-.24,0,1.08,1.08,0,0,1-.34-.23,1.52,1.52,0,0,1-.34-.66,3.19,3.19,0,0,1-.12-1.28l-.1-.06a.56.56,0,0,1-.16-.18.68.68,0,0,1-.05-.45.14.14,0,0,1,.12-.09h0a.12.12,0,0,1,.09.14.35.35,0,0,0,0,.27.24.24,0,0,0,.08.09l.14.05h0a.1.1,0,0,1,.08.12v0a2.24,2.24,0,0,0,0,.63,2.44,2.44,0,0,0,.14.62,1.8,1.8,0,0,0,.27.54.6.6,0,0,0,.21.18.64.64,0,0,0,.24.05h0a.14.14,0,0,1,.12.12.12.12,0,0,1-.09.12Z" transform="translate(-579.12 -130.63)"/><path class="cls-3" d="M617.18,184.33s0,0-.06,0a.93.93,0,0,1-.5-.56,1.54,1.54,0,0,1-.12-.67,3.94,3.94,0,0,1,.22-1.26.12.12,0,0,1,.11-.08h0a.12.12,0,0,1,.08.15,4.77,4.77,0,0,0-.11.59,4.09,4.09,0,0,0,0,.59,2.14,2.14,0,0,0,.11.56.94.94,0,0,0,.3.45s.06,0,.06,0a.11.11,0,0,1,0,.09A.12.12,0,0,1,617.18,184.33Z" transform="translate(-579.12 -130.63)"/><path class="cls-3" d="M608,179.49a13.61,13.61,0,0,0-1.11-2.33.53.53,0,0,0-.41-.25h-.06a.56.56,0,0,1-.8,0,.6.6,0,0,0-.29.08.59.59,0,0,0-.22.78,13.6,13.6,0,0,1,.17,4,.56.56,0,0,0,.14.41l.91,1.07c.77-.48,1.5-1,2.2-1.49A6.9,6.9,0,0,0,608,179.49Z" transform="translate(-579.12 -130.63)"/><path class="cls-9" d="M605.65,177.48c.46.91.23,4.33.23,4.33l1,1.13,1.06-.72a.14.14,0,0,0,0-.07c.35-1-1-4-1.48-4.67A.5.5,0,0,1,605.65,177.48Z" transform="translate(-579.12 -130.63)"/><path class="cls-3" d="M614.46,178.82c.22,0,1.12-.18,1.55.32s.33,1.22-.24,1.32a1.13,1.13,0,0,1-1.46-1.15,1.32,1.32,0,0,0,.59,1.52c.56.25,1.62,0,1.75-.63a1.37,1.37,0,0,0-1.08-1.68,2.2,2.2,0,0,0-1.15.08Z" transform="translate(-579.12 -130.63)"/><path class="cls-10" d="M629.71,160.67H642v7H637v-3h-2.4v12.48H637v-3H642v7H629.71Z" transform="translate(-579.12 -130.63)"/><path class="cls-10" d="M644.21,181.22V160.67h12.26v20.55Zm7.34-4V164.7h-2.41v12.48Z" transform="translate(-579.12 -130.63)"/><path class="cls-10" d="M658.71,181.22V160.67h7.84l4.42,4.42v16.13Zm7.39-4.09V166.32l-1.62-1.62h-.84v12.43Z" transform="translate(-579.12 -130.63)"/><path class="cls-10" d="M673.21,181.22V160.67h12.26v4h-7.33v4.2h6.1v4h-6.1v4.25h7.33v4Z" transform="translate(-579.12 -130.63)"/><path class="cls-10" d="M687.71,160.67h4.93v16.51H700v4H687.71Z" transform="translate(-579.12 -130.63)"/><path class="cls-10" d="M702.21,181.22V160.67h12.26v4h-7.33v4.2h6.1v4h-6.1v4.25h7.33v4Z" transform="translate(-579.12 -130.63)"/><path class="cls-10" d="M716.43,181.22l.9-20.55h10.38l.93,20.55h-4.93l-.14-6H721.5l-.14,6Zm7-10.08-.23-6.44h-1.29l-.22,6.44Z" transform="translate(-579.12 -130.63)"/><path class="cls-10" d="M730.6,181.22V160.67h12.26v7.45L740.23,171l2.63,2.8v7.45h-4.93v-7.39l-.89-.9h-1.52v8.29Zm4.92-12.32H737l.89-.9v-3.3h-2.41Z" transform="translate(-579.12 -130.63)"/><path class="cls-10" d="M745.1,181.22V160.67H750l2.41,8v-8h4.93v20.55H752.6L750,173.27v7.95Z" transform="translate(-579.12 -130.63)"/></svg>